<?xml version="1.0" encoding="utf-8"?>
<svg version="1.1" xmlns:xlink="http://www.w3.org/1999/xlink" width="25px" height="25px" xmlns="http://www.w3.org/2000/svg">
  <defs>
    <mask fill="white" id="clip5">
      <path d="M 0 12.5  C 0 9.52199500467128  0.995445421165641 6.81547512420588  2.67834234798437 4.68843427411639  C 4.95120725037998 1.81572328564903  8.47800499532872 0  12.5 0  C 19.5 0  25 5.5  25 12.5  C 25 12.5751335982895  24.9993663710866 12.6500943886936  24.998104059423 12.7248774250489  C 24.8816664958823 19.6175257917312  19.4248070036142 25  12.5 25  C 5.5 25  0 19.5  0 12.5  Z " fill-rule="evenodd" />
    </mask>
  </defs>
  <g transform="matrix(1 0 0 1 -285 -486 )">
    <path d="M 0 12.5  C 0 9.52199500467128  0.995445421165641 6.81547512420588  2.67834234798437 4.68843427411639  C 4.95120725037998 1.81572328564903  8.47800499532872 0  12.5 0  C 19.5 0  25 5.5  25 12.5  C 25 12.5751335982895  24.9993663710866 12.6500943886936  24.998104059423 12.7248774250489  C 24.8816664958823 19.6175257917312  19.4248070036142 25  12.5 25  C 5.5 25  0 19.5  0 12.5  Z " fill-rule="nonzero" fill="#ffffff" stroke="none" transform="matrix(1 0 0 1 285 486 )" />
    <path d="M 0 12.5  C 0 9.52199500467128  0.995445421165641 6.81547512420588  2.67834234798437 4.68843427411639  C 4.95120725037998 1.81572328564903  8.47800499532872 0  12.5 0  C 19.5 0  25 5.5  25 12.5  C 25 12.5751335982895  24.9993663710866 12.6500943886936  24.998104059423 12.7248774250489  C 24.8816664958823 19.6175257917312  19.4248070036142 25  12.5 25  C 5.5 25  0 19.5  0 12.5  Z " stroke-width="2" stroke="#797979" fill="none" transform="matrix(1 0 0 1 285 486 )" mask="url(#clip5)" />
  </g>
</svg>