<?xml version="1.0" encoding="utf-8"?>
<svg version="1.1" xmlns:xlink="http://www.w3.org/1999/xlink" width="25px" height="25px" xmlns="http://www.w3.org/2000/svg">
  <defs>
    <mask fill="white" id="clip6">
      <path d="M 0 12.5  C 0 5.5  5.5 0  12.5 0  C 19.5 0  25 5.5  25 12.5  C 25 19.5  19.5 25  12.5 25  C 9.24273201794995 25  6.31025366978417 23.8091046757574  4.10558471754212 21.8303337893116  C 1.57233135244962 19.5566463943227  0 16.2427320179499  0 12.5  Z " fill-rule="evenodd" />
    </mask>
  </defs>
  <g transform="matrix(1 0 0 1 -333 -486 )">
    <path d="M 0 12.5  C 0 5.5  5.5 0  12.5 0  C 19.5 0  25 5.5  25 12.5  C 25 19.5  19.5 25  12.5 25  C 9.24273201794995 25  6.31025366978417 23.8091046757574  4.10558471754212 21.8303337893116  C 1.57233135244962 19.5566463943227  0 16.2427320179499  0 12.5  Z " fill-rule="nonzero" fill="#ffffff" stroke="none" transform="matrix(1 0 0 1 333 486 )" />
    <path d="M 0 12.5  C 0 5.5  5.5 0  12.5 0  C 19.5 0  25 5.5  25 12.5  C 25 19.5  19.5 25  12.5 25  C 9.24273201794995 25  6.31025366978417 23.8091046757574  4.10558471754212 21.8303337893116  C 1.57233135244962 19.5566463943227  0 16.2427320179499  0 12.5  Z " stroke-width="2" stroke="#797979" fill="none" transform="matrix(1 0 0 1 333 486 )" mask="url(#clip6)" />
  </g>
</svg>