<?xml version="1.0" encoding="utf-8"?>
<svg version="1.1" xmlns:xlink="http://www.w3.org/1999/xlink" width="25px" height="25px" xmlns="http://www.w3.org/2000/svg">
  <g transform="matrix(1 0 0 1 -382 -486 )">
    <path d="M 394.5 486  C 401.5 486  407 491.5  407 498.5  C 407 505.5  401.5 511  394.5 511  C 387.5 511  382 505.5  382 498.5  C 382 491.5  387.5 486  394.5 486  Z " fill-rule="nonzero" fill="#ffffff" stroke="none" />
    <path d="M 394.5 486.5  C 401.22 486.5  406.5 491.78  406.5 498.5  C 406.5 505.22  401.22 510.5  394.5 510.5  C 387.78 510.5  382.5 505.22  382.5 498.5  C 382.5 491.78  387.78 486.5  394.5 486.5  Z " stroke-width="1" stroke="#797979" fill="none" />
  </g>
</svg>