<?xml version="1.0" encoding="utf-8"?>
<svg version="1.1" xmlns:xlink="http://www.w3.org/1999/xlink" width="25px" height="25px" xmlns="http://www.w3.org/2000/svg">
  <defs>
    <mask fill="white" id="clip7">
      <path d="M 0 12.5  C 0 11.6111323344156  0.0886830917972929 10.7464509665942  0.257859401856024 9.91414577007157  C 0.305752580119304 9.67854082090662  0.360049256697437 9.44570684549467  0.420600776039748 9.21564867519487  C 1.83179806203947 3.85397535839815  6.64035693669274 0  12.5 0  C 19.5 0  25 5.5  25 12.5  C 25 19.5  19.5 25  12.5 25  C 5.5 25  0 19.5  0 12.5  Z " fill-rule="evenodd" />
    </mask>
  </defs>
  <g transform="matrix(1 0 0 1 -429 -486 )">
    <path d="M 0 12.5  C 0 11.6111323344156  0.0886830917972929 10.7464509665942  0.257859401856024 9.91414577007157  C 0.305752580119304 9.67854082090662  0.360049256697437 9.44570684549467  0.420600776039748 9.21564867519487  C 1.83179806203947 3.85397535839815  6.64035693669274 0  12.5 0  C 19.5 0  25 5.5  25 12.5  C 25 19.5  19.5 25  12.5 25  C 5.5 25  0 19.5  0 12.5  Z " fill-rule="nonzero" fill="#ffffff" stroke="none" transform="matrix(1 0 0 1 429 486 )" />
    <path d="M 0 12.5  C 0 11.6111323344156  0.0886830917972929 10.7464509665942  0.257859401856024 9.91414577007157  C 0.305752580119304 9.67854082090662  0.360049256697437 9.44570684549467  0.420600776039748 9.21564867519487  C 1.83179806203947 3.85397535839815  6.64035693669274 0  12.5 0  C 19.5 0  25 5.5  25 12.5  C 25 19.5  19.5 25  12.5 25  C 5.5 25  0 19.5  0 12.5  Z " stroke-width="2" stroke="#797979" fill="none" transform="matrix(1 0 0 1 429 486 )" mask="url(#clip7)" />
  </g>
</svg>