<?xml version="1.0" encoding="utf-8"?>
<svg version="1.1" xmlns:xlink="http://www.w3.org/1999/xlink" width="25px" height="25px" xmlns="http://www.w3.org/2000/svg">
  <defs>
    <mask fill="white" id="clip8">
      <path d="M 0 12.5  C 0 5.5  5.5 0  12.5 0  C 19.5 0  25 5.5  25 12.5  C 25 15.3511135264162  24.0875782474934 17.9533847566943  22.5330119373236 20.0365364959907  C 22.1792073477799 20.5106421299913  21.7921413044484 20.9578586955513  21.3750000000028 21.3749999999973  C 19.1250000000026 23.6249999999989  16.0000000000014 25  12.5 25  C 5.5 25  0 19.5  0 12.5  Z " fill-rule="evenodd" />
    </mask>
  </defs>
  <g transform="matrix(1 0 0 1 -478 -486 )">
    <path d="M 0 12.5  C 0 5.5  5.5 0  12.5 0  C 19.5 0  25 5.5  25 12.5  C 25 15.3511135264162  24.0875782474934 17.9533847566943  22.5330119373236 20.0365364959907  C 22.1792073477799 20.5106421299913  21.7921413044484 20.9578586955513  21.3750000000028 21.3749999999973  C 19.1250000000026 23.6249999999989  16.0000000000014 25  12.5 25  C 5.5 25  0 19.5  0 12.5  Z " fill-rule="nonzero" fill="#ffffff" stroke="none" transform="matrix(1 0 0 1 478 486 )" />
    <path d="M 0 12.5  C 0 5.5  5.5 0  12.5 0  C 19.5 0  25 5.5  25 12.5  C 25 15.3511135264162  24.0875782474934 17.9533847566943  22.5330119373236 20.0365364959907  C 22.1792073477799 20.5106421299913  21.7921413044484 20.9578586955513  21.3750000000028 21.3749999999973  C 19.1250000000026 23.6249999999989  16.0000000000014 25  12.5 25  C 5.5 25  0 19.5  0 12.5  Z " stroke-width="2" stroke="#797979" fill="none" transform="matrix(1 0 0 1 478 486 )" mask="url(#clip8)" />
  </g>
</svg>